name D:\PhD\Datasets\SharingData_IBEC_VALDUCE\RM1_Comp_0001.mot
datacolumns 46
datarows 12
range 0.01000000 0.12000000
endheader
                time	         pelvis_tilt	     pelvis_rotation	           pelvis_tx	           pelvis_ty	           pelvis_tz	       hip_flexion_r	     hip_adduction_r	      hip_rotation_r	        knee_angle_r	       ankle_angle_r	    subtalar_angle_r	         mtp_angle_r	       hip_flexion_l	     hip_adduction_l	      hip_rotation_l	        knee_angle_l	       ankle_angle_l	    subtalar_angle_l	         mtp_angle_l	    lumbar_extension	      lumbar_bending	     lumbar_rotation	          arm_flex_r	           arm_add_r	           arm_rot_r	        elbow_flex_r	           pro_sup_r	        wrist_flex_r	         wrist_dev_r	          arm_flex_l	           arm_add_l	           arm_rot_l	        elbow_flex_l	           pro_sup_l	        wrist_flex_l	         wrist_dev_l	          end_eff_tx	          end_eff_ty	          end_eff_tz	             goal_tx	             goal_ty	             goal_tz	            elbow_tx	            elbow_ty	            elbow_tz	
          0.01000000	          0.00000000	          0.00000000	        318.31241832	        512.44274024	        372.28312183	          0.00000000	          0.00000000	          0.00000000	          0.00000000	          0.00000000	          0.00000000	          0.00000000	          0.00000000	          0.00000000	          0.00000000	          0.00000000	          0.00000000	          0.00000000	          0.00000000	         -0.71576053	          6.53980112	         -5.17094135	        -15.76026058	        -39.50990295	         10.36759090	         87.63585663	        116.89117432	          0.00000000	          0.00000000	          0.00000000	          0.00000000	          0.00000000	          0.00000000	          0.00000000	          0.00000000	          0.00000000	        451.66954651	        196.56240056	        520.33111865	        884.66093303	        674.49530717	        575.39200636	         92.52269663	        331.23539464	        695.12156113	
          0.02000000	          0.00000000	          0.00000000	        318.32718589	        512.41566567	        372.31296557	          0.00000000	          0.00000000	          0.00000000	          0.00000000	          0.00000000	          0.00000000	          0.00000000	          0.00000000	          0.00000000	          0.00000000	          0.00000000	          0.00000000	          0.00000000	          0.00000000	         -0.73938054	          6.54805946	         -5.16229868	        -15.74648952	        -39.52466202	         10.39637947	         87.66092682	        116.86546326	          0.00000000	          0.00000000	          0.00000000	          0.00000000	          0.00000000	          0.00000000	          0.00000000	          0.00000000	          0.00000000	        451.63490389	        196.45396115	        520.24636926	        884.64892865	        674.46870533	        575.40960430	         92.61318615	        331.08833648	        695.22608637	
          0.03000000	          0.00000000	          0.00000000	        318.34434244	        512.38540731	        372.36177812	          0.00000000	          0.00000000	          0.00000000	          0.00000000	          0.00000000	          0.00000000	          0.00000000	          0.00000000	          0.00000000	          0.00000000	          0.00000000	          0.00000000	          0.00000000	          0.00000000	         -0.78643763	          6.55905199	         -5.15811443	        -15.67414570	        -39.53868103	         10.43252468	         87.63739777	        116.84247589	          0.00000000	          0.00000000	          0.00000000	          0.00000000	          0.00000000	          0.00000000	          0.00000000	          0.00000000	          0.00000000	        451.55481519	        196.31707464	        520.15210788	        884.65400919	        674.50628496	        575.41335197	         92.73849304	        331.09617427	        695.30814090	
          0.04000000	          0.00000000	          0.00000000	        318.40122918	        512.38668979	        372.39863380	          0.00000000	          0.00000000	          0.00000000	          0.00000000	          0.00000000	          0.00000000	          0.00000000	          0.00000000	          0.00000000	          0.00000000	          0.00000000	          0.00000000	          0.00000000	          0.00000000	         -0.90689194	          6.57253170	         -5.14589071	        -15.37816811	        -39.84662247	         10.66330528	         87.66096497	        117.14012146	          0.00000000	          0.00000000	          0.00000000	          0.00000000	          0.00000000	          0.00000000	          0.00000000	          0.00000000	          0.00000000	        451.17503212	        195.71297490	        520.06310628	        884.63361639	        674.46990805	        575.39224850	         92.97541370	        331.01059020	        695.28643703	
          0.05000000	          0.00000000	          0.00000000	        318.43340758	        512.37187029	        372.44984926	          0.00000000	          0.00000000	          0.00000000	          0.00000000	          0.00000000	          0.00000000	          0.00000000	          0.00000000	          0.00000000	          0.00000000	          0.00000000	          0.00000000	          0.00000000	          0.00000000	         -0.90454888	          6.58781958	         -5.15296936	        -15.39284706	        -39.86333466	         10.69966698	         87.67281342	        117.15196228	          0.00000000	          0.00000000	          0.00000000	          0.00000000	          0.00000000	          0.00000000	          0.00000000	          0.00000000	          0.00000000	        451.09702784	        195.61250680	        519.97175022	        884.65094748	        674.49104461	        575.41416383	         92.97302073	        330.99149157	        695.33683662	
          0.06000000	          0.00000000	          0.00000000	        318.35907502	        512.27766586	        372.50462834	          0.00000000	          0.00000000	          0.00000000	          0.00000000	          0.00000000	          0.00000000	          0.00000000	          0.00000000	          0.00000000	          0.00000000	          0.00000000	          0.00000000	          0.00000000	          0.00000000	         -0.90386671	          6.62651157	         -5.18426132	        -15.37943649	        -40.00879669	         10.92864990	         87.65992737	        117.14703369	          0.00000000	          0.00000000	          0.00000000	          0.00000000	          0.00000000	          0.00000000	          0.00000000	          0.00000000	          0.00000000	        451.10600685	        195.56369751	        520.00533052	        884.73086617	        674.36391602	        575.39059671	         92.97686850	        331.12267897	        695.52922559	
          0.07000000	          0.00000000	          0.00000000	        318.40563020	        512.31671348	        372.57322038	          0.00000000	          0.00000000	          0.00000000	          0.00000000	          0.00000000	          0.00000000	          0.00000000	          0.00000000	          0.00000000	          0.00000000	          0.00000000	          0.00000000	          0.00000000	          0.00000000	         -0.92595309	          6.63307858	         -5.18720818	        -15.35023212	        -40.01615906	         10.94589710	         87.66094971	        117.17488861	          0.00000000	          0.00000000	          0.00000000	          0.00000000	          0.00000000	          0.00000000	          0.00000000	          0.00000000	          0.00000000	        451.05022827	        195.50310620	        519.94076974	        884.74676244	        674.39454273	        575.40038972	         93.13390774	        331.00002501	        695.48365169	
          0.08000000	          0.00000000	          0.00000000	        318.43542138	        512.32074080	        372.61105431	          0.00000000	          0.00000000	          0.00000000	          0.00000000	          0.00000000	          0.00000000	          0.00000000	          0.00000000	          0.00000000	          0.00000000	          0.00000000	          0.00000000	          0.00000000	          0.00000000	         -0.90850514	          6.63130379	         -5.19023085	        -15.37007427	        -40.01414871	         10.97772121	         87.65095520	        117.13319397	          0.00000000	          0.00000000	          0.00000000	          0.00000000	          0.00000000	          0.00000000	          0.00000000	          0.00000000	          0.00000000	        450.98674003	        195.45227363	        519.87197111	        884.76060434	        674.36790700	        575.40267612	         93.04205105	        331.12185351	        695.63181844	
          0.09000000	          0.00000000	          0.00000000	        318.46200902	        512.34515116	        372.67326496	          0.00000000	          0.00000000	          0.00000000	          0.00000000	          0.00000000	          0.00000000	          0.00000000	          0.00000000	          0.00000000	          0.00000000	          0.00000000	          0.00000000	          0.00000000	          0.00000000	         -0.93066782	          6.63838100	         -5.18050814	        -15.32764435	        -40.02903366	         10.98706245	         87.64775085	        117.10078430	          0.00000000	          0.00000000	          0.00000000	          0.00000000	          0.00000000	          0.00000000	          0.00000000	          0.00000000	          0.00000000	        450.95141406	        195.42703682	        519.81188653	        884.57584647	        674.39298180	        575.53813489	         92.83217073	        331.07197282	        695.77390991	
          0.10000000	          0.00000000	          0.00000000	        318.49735099	        512.37439711	        372.74044408	          0.00000000	          0.00000000	          0.00000000	          0.00000000	          0.00000000	          0.00000000	          0.00000000	          0.00000000	          0.00000000	          0.00000000	          0.00000000	          0.00000000	          0.00000000	          0.00000000	         -0.89298767	          6.62184525	         -5.18374538	        -15.36763000	        -40.01372147	         10.99794006	         87.65576935	        117.10704803	          0.00000000	          0.00000000	          0.00000000	          0.00000000	          0.00000000	          0.00000000	          0.00000000	          0.00000000	          0.00000000	        450.90019511	        195.38389396	        519.77104364	        884.56343758	        674.38974319	        575.54813884	         92.88203171	        331.03468013	        695.81000061	
          0.11000000	          0.00000000	          0.00000000	        318.52747686	        512.38754514	        372.83515816	          0.00000000	          0.00000000	          0.00000000	          0.00000000	          0.00000000	          0.00000000	          0.00000000	          0.00000000	          0.00000000	          0.00000000	          0.00000000	          0.00000000	          0.00000000	          0.00000000	         -0.91137838	          6.61336803	         -5.18051004	        -15.34050083	        -39.97949982	         11.00115204	         87.64605713	        117.14872742	          0.00000000	          0.00000000	          0.00000000	          0.00000000	          0.00000000	          0.00000000	          0.00000000	          0.00000000	          0.00000000	        450.88138122	        195.39433311	        519.74812549	        884.55962285	        674.40565326	        575.56397884	         92.84991241	        331.11330945	        695.92812731	
          0.12000000	          0.00000000	          0.00000000	        318.56760352	        512.41133065	        372.93302614	          0.00000000	          0.00000000	          0.00000000	          0.00000000	          0.00000000	          0.00000000	          0.00000000	          0.00000000	          0.00000000	          0.00000000	          0.00000000	          0.00000000	          0.00000000	          0.00000000	         -0.85291249	          6.61121941	         -5.17817163	        -15.39447498	        -39.98728943	         10.99041939	         87.63832092	        117.09907532	          0.00000000	          0.00000000	          0.00000000	          0.00000000	          0.00000000	          0.00000000	          0.00000000	          0.00000000	          0.00000000	        450.89064894	        195.39237456	        519.76088857	        884.55337403	        674.37302418	        575.55172791	         92.91513354	        331.10172360	        695.93033559	
